<svg width="152" height="38" viewBox="0 0 152 38" fill="none" xmlns="http://www.w3.org/2000/svg">
<g clip-path="url(#clip0_193_4169)">
<path d="M20.9893 37.2042C31.263 37.2042 39.5914 28.8758 39.5914 18.6021C39.5914 8.32844 31.263 0 20.9893 0C10.7156 0 2.38721 8.32844 2.38721 18.6021C2.38721 28.8758 10.7156 37.2042 20.9893 37.2042Z" fill="white"/>
<g clip-path="url(#clip1_193_4169)">
<path d="M-0.00012207 21.1552C0.663054 20.7573 1.42571 20.4921 2.22152 20.3594C3.01733 20.2268 3.8463 20.26 4.67527 20.4921C5.47108 20.7242 6.23373 21.1552 6.86375 21.6858L7.09586 21.8847C7.16218 21.9511 7.2285 21.9842 7.29482 22.0505C7.42745 22.15 7.56009 22.2163 7.65956 22.2495C7.75904 22.2826 7.82536 22.2826 7.89167 22.2495C7.95799 22.2163 8.02431 22.1832 8.12379 22.0837C8.32274 21.8847 8.48853 21.6195 8.65433 21.2879C8.82012 20.9563 8.95276 20.6247 9.08539 20.26C9.35066 19.5636 9.58278 18.801 9.84805 18.0715C9.98068 17.7067 10.1465 17.3088 10.3454 16.9109C10.4449 16.712 10.5444 16.513 10.677 16.3141C10.8097 16.1151 10.9754 15.883 11.2407 15.684C11.3734 15.5846 11.5391 15.4519 11.7713 15.3856C11.9702 15.3193 12.2355 15.2861 12.4676 15.3193C12.6997 15.3525 12.8987 15.4188 13.0645 15.5182C13.2302 15.6177 13.3297 15.684 13.4624 15.7835C13.9266 16.1814 14.1918 16.6125 14.3908 17.0104C14.8219 17.8394 15.054 18.6352 15.2861 19.3978C15.5182 20.1605 15.684 20.9563 15.8829 21.6526C15.9824 22.0174 16.0819 22.349 16.2145 22.6142C16.2809 22.7469 16.3472 22.8463 16.3472 22.8463C16.3472 22.8463 16.314 22.78 16.1814 22.7137C16.0487 22.6142 15.7503 22.6142 15.6177 22.6474C15.485 22.6806 15.4519 22.7137 15.4519 22.7137C15.4519 22.7137 15.485 22.6806 15.5182 22.6474C15.5845 22.5811 15.684 22.4484 15.7503 22.3158C15.8829 22.0505 16.0487 21.7521 16.1482 21.4205C16.6456 20.0942 17.0103 18.5689 17.4083 17.0767C17.8062 15.5514 18.1377 14.0261 18.6351 12.4676C18.7678 12.0697 18.9004 11.6718 19.0994 11.2408C19.1988 11.0418 19.2983 10.8097 19.4309 10.5776C19.5636 10.3455 19.7294 10.1134 20.0278 9.81493C20.1936 9.6823 20.3925 9.5165 20.691 9.41702C20.9894 9.31755 21.3873 9.31755 21.6857 9.38387C21.9842 9.48334 22.2163 9.61598 22.3821 9.74861C22.4484 9.81493 22.5147 9.88125 22.6142 9.94757L22.78 10.1465C23.1447 10.6107 23.3768 11.0418 23.5426 11.4729C23.9074 12.3018 24.1063 13.0977 24.3053 13.8935C24.5042 14.6893 24.6369 15.4851 24.7695 16.2477C25.0348 17.8062 25.2669 19.3315 25.5985 20.7905C25.6648 21.1552 25.7643 21.4868 25.8638 21.8184C25.9301 21.9842 25.9632 22.1168 26.0295 22.2495C26.0959 22.3821 26.1622 22.4484 26.1622 22.4816C26.1622 22.4816 26.1622 22.4816 26.0627 22.4484C25.9964 22.4153 25.8638 22.4153 25.7974 22.4153C25.7311 22.4153 25.6648 22.4484 25.6648 22.4484C25.6648 22.4484 25.698 22.4484 25.698 22.4153C25.7311 22.4153 25.7311 22.3821 25.7643 22.3821C25.9632 22.2495 26.1622 22.0174 26.3611 21.7521C26.759 21.2216 27.1238 20.5584 27.4885 19.8621C27.6875 19.5305 27.8864 19.1657 28.1186 18.801C28.3507 18.4362 28.6159 18.0715 29.047 17.7067C29.2459 17.5409 29.5444 17.3751 29.8428 17.2757C30.1744 17.1762 30.5391 17.1762 30.8376 17.2757C31.4344 17.4415 31.8323 17.773 32.1639 18.0715C32.7276 18.6352 33.2582 19.1326 33.855 19.6299C35.0156 20.6247 36.2756 21.52 37.602 22.2163C38.2651 22.5811 38.9946 22.8795 39.7241 23.0453C40.4536 23.2443 41.2494 23.3106 42.0121 23.1116C41.2826 23.4432 40.4536 23.4764 39.6578 23.41C38.862 23.3437 38.0662 23.1116 37.3035 22.8463C35.7782 22.2826 34.3856 21.4868 33.0592 20.5915C32.396 20.1273 31.766 19.6299 31.1692 19.1326C30.9039 18.9336 30.6386 18.7678 30.4728 18.7678C30.4065 18.7678 30.3402 18.7678 30.307 18.801C30.2739 18.8341 30.2076 18.8673 30.1081 18.9668C29.9423 19.1326 29.7433 19.3978 29.5775 19.6963C29.4117 19.9947 29.2459 20.3263 29.0802 20.691C28.7486 21.3874 28.417 22.1168 27.9196 22.8795C27.6543 23.2443 27.3891 23.6422 26.958 23.9737C26.8917 24.0069 26.8585 24.0732 26.7922 24.1064C26.7259 24.1395 26.6927 24.1727 26.5932 24.239C26.4275 24.3385 26.1953 24.438 25.9301 24.4711C25.6648 24.5043 25.3332 24.438 25.1011 24.3385C24.8358 24.239 24.7032 24.0732 24.5374 23.9406C24.2721 23.6753 24.1395 23.4432 24.0069 23.2111C23.8742 22.979 23.8079 22.78 23.7084 22.5479C23.5426 22.1168 23.4432 21.7189 23.3105 21.321C22.8795 19.7294 22.6473 18.2041 22.3158 16.6788C22.15 15.9162 22.0173 15.1867 21.8184 14.4572C21.6194 13.7277 21.4205 13.0313 21.1552 12.4345C21.0226 12.136 20.8899 11.8708 20.7573 11.7381C20.7241 11.6718 20.6578 11.705 20.8899 11.8045C21.0226 11.8376 21.1884 11.8376 21.321 11.8045C21.4205 11.7713 21.4868 11.7381 21.4868 11.705C21.5199 11.6718 21.4205 11.7713 21.3873 11.8708C21.321 11.9703 21.2547 12.1029 21.1884 12.2687C21.0557 12.5671 20.9231 12.8987 20.8236 13.2303C20.3594 14.623 19.9946 16.1483 19.5967 17.6736C19.1988 19.1989 18.8009 20.7242 18.1709 22.3158C18.0051 22.7137 17.8062 23.1116 17.574 23.5427C17.574 23.808 17.4414 24.0069 17.2425 24.2059C17.143 24.3053 17.0435 24.438 16.8777 24.5374C16.7119 24.6701 16.5461 24.8027 16.2145 24.9022C16.1151 24.9353 16.0487 24.9354 15.9493 24.9685C15.8498 24.9685 15.7503 24.9685 15.6508 24.9685C15.4519 24.9354 15.2529 24.869 15.0871 24.8027C14.7555 24.6369 14.6229 24.438 14.4903 24.2722C14.2582 23.9737 14.1587 23.7085 14.0924 23.4764C13.9266 23.0121 13.8271 22.6142 13.7276 22.2163L13.2634 19.9284C13.0976 19.1989 12.8987 18.4694 12.6334 17.9057C12.5007 17.6073 12.335 17.3751 12.2023 17.2425L12.1692 17.2093L12.136 17.1762C12.136 17.1762 12.136 17.1762 12.2023 17.1762C12.2355 17.1762 12.3018 17.1762 12.335 17.143C12.3681 17.1099 12.3681 17.1099 12.335 17.143C12.2355 17.1762 12.0365 17.4746 11.8707 17.773C11.7049 18.0715 11.5391 18.4031 11.3734 18.7347C11.0418 19.431 10.7433 20.1605 10.4117 20.89C10.246 21.2547 10.047 21.6195 9.81489 21.9842C9.58278 22.349 9.35066 22.7137 8.95276 23.0453C8.7538 23.2111 8.48853 23.3769 8.15695 23.4432C7.82536 23.5095 7.49377 23.4432 7.2285 23.3437C6.96323 23.2111 6.76428 23.0785 6.59848 22.9127C6.499 22.8463 6.43269 22.7469 6.36637 22.6806L6.20058 22.4816C5.70319 21.9511 5.10633 21.52 4.44316 21.2216C3.08365 20.5915 1.45887 20.6247 -0.00012207 21.1552Z" fill="#010625"/>
</g>
<path d="M56.5024 25.1011H56.2703C55.8061 25.8637 55.176 26.4606 54.3802 26.8917C53.5844 27.3227 52.6891 27.5548 51.6612 27.5548C49.7712 27.5548 48.3785 26.9911 47.45 25.8306C46.5216 24.67 46.0574 23.1447 46.0574 21.1883V12.136H50.0364V20.691C50.0364 21.752 50.2685 22.581 50.7659 23.0784C51.2302 23.6089 51.9265 23.841 52.8549 23.841C53.4186 23.841 53.8829 23.7084 54.3139 23.4763C54.745 23.2442 55.0766 22.9126 55.375 22.5479C55.6734 22.1499 55.9055 21.6857 56.0382 21.1552C56.204 20.6246 56.2703 20.0278 56.2703 19.4309V12.136H60.2493V27.0575H56.5024V25.1011Z" fill="white"/>
<path d="M66.1853 14.0592H66.4174C66.8816 13.2966 67.5117 12.6997 68.3075 12.2686C69.1033 11.8376 69.9986 11.6055 71.0265 11.6055C71.9549 11.6055 72.7839 11.7713 73.4802 12.0697C74.1766 12.3681 74.7734 12.7992 75.2377 13.3629C75.7019 13.9266 76.0335 14.5898 76.2656 15.3856C76.4977 16.1814 76.6303 17.0435 76.6303 18.0051V27.0575H72.6513V18.5025C72.6513 17.4414 72.4192 16.6124 71.9218 16.1151C71.4575 15.5845 70.7612 15.3524 69.8328 15.3524C69.2691 15.3524 68.8048 15.4851 68.3738 15.7172C67.9427 15.9493 67.6111 16.2809 67.3127 16.6456C67.0143 17.0435 66.7822 17.5077 66.6495 18.0383C66.4837 18.5688 66.4174 19.1657 66.4174 19.7625V27.0906H62.4384V12.1692H66.1853V14.0592Z" fill="white"/>
<path d="M84.4555 27.5549C83.4939 27.5549 82.5986 27.4222 81.8359 27.1901C81.0733 26.958 80.4101 26.6264 79.8464 26.2285C79.2827 25.8306 78.8185 25.3664 78.4206 24.869C78.0226 24.3385 77.7242 23.8411 77.5253 23.3105L81.0733 21.7852C81.4048 22.5479 81.8691 23.1447 82.4659 23.5095C83.0296 23.8742 83.6928 24.0732 84.3891 24.0732C85.1186 24.0732 85.7155 23.9405 86.1134 23.6753C86.5445 23.41 86.7434 23.1116 86.7434 22.7468C86.7434 22.3489 86.5776 22.0173 86.2129 21.7521C85.8481 21.4868 85.2513 21.2547 84.356 21.0557L82.267 20.5915C81.8028 20.492 81.3054 20.3262 80.808 20.0941C80.3106 19.862 79.8464 19.5967 79.4485 19.232C79.0506 18.9004 78.719 18.4693 78.4537 17.972C78.1884 17.4746 78.0558 16.9109 78.0558 16.2809C78.0558 15.5514 78.2216 14.8882 78.52 14.3245C78.8185 13.7608 79.2827 13.2634 79.8132 12.8655C80.3438 12.4676 81.0069 12.1692 81.7364 11.9371C82.4659 11.7381 83.2617 11.6055 84.1239 11.6055C85.5497 11.6055 86.8097 11.8707 87.9371 12.4344C89.0645 12.9981 89.8603 13.8934 90.3909 15.0871L86.9424 16.4798C86.6439 15.883 86.246 15.4519 85.6823 15.1866C85.1186 14.9214 84.5881 14.7887 84.0244 14.7887C83.4607 14.7887 82.9633 14.9214 82.5322 15.1535C82.1012 15.3856 81.9022 15.684 81.9022 16.0488C81.9022 16.3803 82.068 16.6788 82.4328 16.8777C82.7975 17.0767 83.2617 17.2756 83.8918 17.4414L86.1797 18.0051C87.705 18.3699 88.8324 18.9667 89.5619 19.7625C90.2914 20.5583 90.6893 21.52 90.6893 22.6142C90.6893 23.2774 90.5235 23.8742 90.2251 24.4711C89.9267 25.0679 89.4956 25.5985 88.9319 26.0296C88.3682 26.4938 87.705 26.8585 86.9092 27.1238C86.2792 27.4222 85.4171 27.5549 84.4555 27.5549Z" fill="white"/>
<path d="M94.1377 10.1133C93.8061 10.1133 93.4745 10.047 93.1429 9.91434C92.8113 9.7817 92.546 9.61591 92.3139 9.35064C92.0818 9.11853 91.8829 8.85326 91.7502 8.55483C91.6176 8.2564 91.5513 7.92481 91.5513 7.56006C91.5513 7.19532 91.6176 6.86373 91.7502 6.5653C91.8829 6.26687 92.0486 6.0016 92.3139 5.76949C92.546 5.53738 92.8113 5.33842 93.1429 5.20579C93.4413 5.07315 93.7729 5.00684 94.1377 5.00684C94.834 5.00684 95.464 5.27211 95.9614 5.76949C96.4588 6.26687 96.724 6.86373 96.724 7.59322C96.724 8.28956 96.4588 8.91958 95.9614 9.41696C95.4308 9.88118 94.834 10.1133 94.1377 10.1133ZM92.1481 27.0574V12.136H96.1272V27.0574H92.1481Z" fill="white"/>
<path d="M102.328 14.0592H102.56C103.024 13.2966 103.654 12.6997 104.45 12.2686C105.246 11.8376 106.141 11.6055 107.169 11.6055C108.098 11.6055 108.927 11.7713 109.623 12.0697C110.319 12.3681 110.916 12.7992 111.38 13.3629C111.845 13.9266 112.176 14.5898 112.408 15.3856C112.641 16.1814 112.773 17.0435 112.773 18.0051V27.0575H108.794V18.5025C108.794 17.4414 108.562 16.6124 108.065 16.1151C107.6 15.5845 106.904 15.3524 105.976 15.3524C105.412 15.3524 104.948 15.4851 104.517 15.7172C104.086 15.9493 103.754 16.2809 103.456 16.6456C103.157 17.0435 102.925 17.5077 102.792 18.0383C102.627 18.5688 102.56 19.1657 102.56 19.7625V27.0906H98.5812V12.1692H102.328V14.0592Z" fill="white"/>
<path d="M128.988 23.4435C128.291 24.6703 127.363 25.6319 126.202 26.3946C125.042 27.1572 123.616 27.522 121.925 27.522C120.797 27.522 119.736 27.323 118.775 26.9251C117.813 26.5272 116.984 25.9635 116.255 25.2672C115.558 24.5709 114.995 23.7087 114.597 22.7471C114.199 21.7855 114 20.7244 114 19.5639C114 18.5028 114.199 17.4749 114.564 16.5133C114.961 15.5517 115.492 14.6895 116.188 13.9932C116.885 13.2637 117.681 12.7 118.642 12.2689C119.571 11.8379 120.632 11.6389 121.759 11.6389C122.953 11.6389 124.014 11.8379 124.942 12.2358C125.871 12.6337 126.667 13.1642 127.297 13.8937C127.927 14.5901 128.391 15.419 128.722 16.3806C129.054 17.3422 129.22 18.3702 129.22 19.4976C129.22 19.6302 129.22 19.7628 129.22 19.8623C129.187 19.9949 129.187 20.0944 129.187 20.1939C129.153 20.2934 129.153 20.3928 129.153 20.5255H117.913C117.979 21.1223 118.145 21.6529 118.41 22.0839C118.675 22.515 118.974 22.8798 119.338 23.1782C119.703 23.4766 120.134 23.6756 120.565 23.8082C120.996 23.9408 121.461 24.0072 121.925 24.0072C122.853 24.0072 123.583 23.8082 124.18 23.3771C124.776 22.9461 125.241 22.4487 125.605 21.8187L128.988 23.4435ZM125.34 17.6738C125.307 17.4086 125.241 17.1101 125.075 16.7785C124.909 16.4469 124.71 16.1485 124.412 15.8501C124.113 15.5517 123.749 15.3195 123.318 15.1538C122.886 14.9548 122.356 14.8885 121.759 14.8885C120.897 14.8885 120.167 15.1206 119.504 15.618C118.841 16.1154 118.41 16.7785 118.145 17.6738H125.34Z" fill="white"/>
<path d="M141.82 25.2672H141.588C141.223 25.8972 140.66 26.4277 139.897 26.892C139.134 27.323 138.173 27.5551 137.045 27.5551C136.084 27.5551 135.189 27.3562 134.326 26.9583C133.464 26.5604 132.702 26.0298 132.038 25.3003C131.375 24.604 130.845 23.775 130.48 22.7803C130.082 21.8187 129.916 20.7244 129.916 19.597C129.916 18.4365 130.115 17.3754 130.48 16.4138C130.878 15.4522 131.375 14.59 132.038 13.8937C132.702 13.1974 133.464 12.6337 134.326 12.2358C135.189 11.8379 136.084 11.6389 137.045 11.6389C138.173 11.6389 139.134 11.871 139.897 12.3021C140.66 12.7332 141.223 13.2969 141.588 13.9269H141.82L141.588 11.8047V5.23926H145.567V27.0578H141.82V25.2672ZM137.841 23.8414C138.372 23.8414 138.869 23.7419 139.333 23.5429C139.798 23.344 140.229 23.0787 140.593 22.714C140.958 22.3492 141.257 21.9181 141.489 21.3876C141.721 20.8571 141.82 20.2602 141.82 19.597C141.82 18.9338 141.721 18.337 141.489 17.8064C141.257 17.2759 140.958 16.8448 140.593 16.4801C140.229 16.1154 139.798 15.8501 139.333 15.6511C138.869 15.4522 138.339 15.3527 137.841 15.3527C137.311 15.3527 136.813 15.4522 136.349 15.6511C135.885 15.8501 135.454 16.1485 135.089 16.5133C134.724 16.878 134.426 17.3422 134.194 17.8396C133.962 18.3701 133.862 18.967 133.862 19.597C133.862 20.2602 133.962 20.8239 134.194 21.3544C134.426 21.885 134.724 22.316 135.089 22.6808C135.454 23.0455 135.885 23.344 136.349 23.5429C136.813 23.7419 137.311 23.8414 137.841 23.8414Z" fill="white"/>
<path d="M149.48 5.3054H149.281V3.64746H149.844C149.977 3.64746 150.11 3.68062 150.209 3.7801C150.309 3.87957 150.375 3.97905 150.375 4.14484C150.375 4.24432 150.342 4.37695 150.276 4.44327C150.209 4.54275 150.11 4.57591 149.977 4.60907L150.441 5.27224H150.176L149.712 4.60907H149.48V5.3054ZM149.48 3.84641V4.44327H149.811C149.911 4.44327 149.977 4.41011 150.043 4.3438C150.11 4.27748 150.143 4.21116 150.143 4.14484C150.143 4.07853 150.11 4.01221 150.043 3.94589C149.977 3.87957 149.911 3.84641 149.844 3.84641H149.48Z" fill="white"/>
<path d="M149.745 6.56531C150.88 6.56531 151.801 5.64487 151.801 4.50946C151.801 3.37405 150.88 2.45361 149.745 2.45361C148.61 2.45361 147.689 3.37405 147.689 4.50946C147.689 5.64487 148.61 6.56531 149.745 6.56531Z" stroke="white" stroke-width="0.331588" stroke-miterlimit="10"/>
</g>
<defs>
<clipPath id="clip0_193_4169">
<rect width="152" height="37.2374" fill="white"/>
</clipPath>
<clipPath id="clip1_193_4169">
<rect width="36.1431" height="15.5846" fill="white" transform="translate(2.65271 9.28442)"/>
</clipPath>
</defs>
</svg>
